<svg width="29" height="24" viewBox="0 0 29 24" version="1.1" xmlns="http://www.w3.org/2000/svg" xmlns:xlink="http://www.w3.org/1999/xlink">
<title>twitter-logo-silhouette</title>
<desc>Created using Figma</desc>
<g id="Canvas" transform="translate(-892 -6996)">
<g id="twitter-logo-silhouette">
<g id="Group">
<g id="Group">
<g id="Vector">
<use xlink:href="#path0_fill" transform="translate(892 6996)" fill="#646464"/>
</g>
</g>
</g>
</g>
</g>
<defs>
<path id="path0_fill" d="M 29 2.83958C 27.9326 3.32144 26.7874 3.64824 25.5841 3.79413C 26.8127 3.04452 27.7532 1.85552 28.199 0.443097C 27.0465 1.13729 25.7743 1.64136 24.4188 1.91462C 23.3333 0.734842 21.7894 9.13466e-08 20.0768 9.13466e-08C 16.7914 9.13466e-08 14.1275 2.71405 14.1275 6.05954C 14.1275 6.53402 14.1801 6.99744 14.2816 7.44059C 9.33801 7.18761 4.95441 4.77452 2.02053 1.10774C 1.50767 2.00137 1.21592 3.04264 1.21592 4.15414C 1.21592 6.25709 2.26698 8.11262 3.8617 9.1982C 2.88674 9.16499 1.96978 8.89173 1.16701 8.43753L 1.16701 8.51323C 1.16701 11.4488 3.21839 13.8989 5.93842 14.4565C 5.44007 14.5931 4.91456 14.6688 4.3709 14.6688C 3.98675 14.6688 3.61524 14.63 3.25099 14.5562C 4.00845 16.9656 6.20482 18.7177 8.80711 18.7657C 6.77203 20.3905 4.206 21.3561 1.41892 21.3561C 0.938711 21.3561 0.465707 21.3265 2.25098e-12 21.273C 2.63308 22.9956 5.75907 24 9.11881 24C 20.0624 24 26.0444 14.7648 26.0444 6.75561L 26.0245 5.97095C 27.1933 5.12159 28.2044 4.05445 29 2.83958Z"/>
</defs>
</svg>
