<svg width="19" height="34" viewBox="0 0 19 34" version="1.1" xmlns="http://www.w3.org/2000/svg" xmlns:xlink="http://www.w3.org/1999/xlink">
<title>facebook-logo</title>
<desc>Created using Figma</desc>
<g id="Canvas" transform="translate(-817 -6991)">
<g id="facebook-logo">
<g id="Group">
<g id="Vector">
<use xlink:href="#path0_fill" transform="translate(817 6991)" fill="#646464"/>
</g>
</g>
</g>
</g>
<defs>
<path id="path0_fill" d="M 17.6899 0.00707427L 13.2809 0C 8.32748 0 5.12637 3.28423 5.12637 8.36745L 5.12637 12.2254L 0.693279 12.2254C 0.310207 12.2254 -1.18739e-07 12.536 -1.18739e-07 12.919L -1.18739e-07 18.5088C -1.18739e-07 18.8918 0.310561 19.202 0.693279 19.202L 5.12637 19.202L 5.12637 33.3067C 5.12637 33.6898 5.43658 34 5.81965 34L 11.6036 34C 11.9866 34 12.2968 33.6894 12.2968 33.3067L 12.2968 19.202L 17.4802 19.202C 17.8632 19.202 18.1734 18.8918 18.1734 18.5088L 18.1756 12.919C 18.1756 12.7351 18.1023 12.559 17.9725 12.4288C 17.8427 12.2986 17.6659 12.2254 17.4819 12.2254L 12.2968 12.2254L 12.2968 8.95496C 12.2968 7.38306 12.6714 6.58508 14.7191 6.58508L 17.6892 6.58402C 18.0719 6.58402 18.3821 6.27346 18.3821 5.89074L 18.3821 0.700353C 18.3821 0.317988 18.0723 0.0077817 17.6899 0.00707427Z"/>
</defs>
</svg>
