<!--?xml version="1.0" encoding="UTF-8" standalone="no"?--><svg width="100%" height="100%" viewBox="0 0 1512 1008" version="1.1" xmlns="http://www.w3.org/2000/svg" xmlns:xlink="http://www.w3.org/1999/xlink" xml:space="preserve" style="fill-rule: evenodd; clip-rule: evenodd; stroke-linecap: round; stroke-linejoin: round; stroke-miterlimit: 1.5;" class=""><g id="Leica-M10-sketch"><path d="M955.756,328.126l0.018,74.264" style="fill:none;stroke:#000;stroke-width:2px;" class="kJPUuMpX_0"></path><path d="M754.412,341.362c0,0 0.246,16.31 0.311,22.929c0.068,6.97 0.153,18.256 6.428,19.108" style="fill:none;stroke:#000;stroke-width:2px;" class="kJPUuMpX_1"></path><path d="M865.808,334.795c11.766,-0.81 22.333,13.256 23.582,31.394c1.25,18.137 -7.289,33.519 -19.055,34.33c-11.767,0.81 -22.334,-13.257 -23.583,-31.394c-1.249,-18.137 7.289,-33.519 19.056,-34.33Z" style="fill:none;stroke:#000;stroke-width:2px;" class="kJPUuMpX_2"></path><path d="M761.459,343.729c1.249,2.36 0.011,37.71 -0.086,39.581c-0.094,1.815 -16.705,0.262 -22.891,-0.804c-6.186,-1.067 -21.95,-0.189 -22.408,-2.848c-0.508,-2.95 -1.261,-38.644 -1.159,-40.733c0.112,-2.32 9.793,-2.412 14.986,-1.607c3.827,0.593 30.266,3.972 31.558,6.411Z" style="fill:none;stroke:#000;stroke-width:2px;" class="kJPUuMpX_3"></path><path d="M800.018,299.014c4.255,-0.092 7.838,5.783 7.996,13.111c0.159,7.328 -3.167,13.353 -7.422,13.445c-4.255,0.092 -7.838,-5.783 -7.996,-13.112c-0.159,-7.328 3.167,-13.352 7.422,-13.444Z" style="fill:none;stroke:#000;stroke-width:2px;" class="kJPUuMpX_4"></path><path d="M947.088,329.552l101.517,16.45l-0.872,55.522" style="fill:none;stroke:#000;stroke-width:2px;" class="kJPUuMpX_5"></path><path d="M952.869,343.792l87.791,12.912l-0.295,41.965" style="fill:none;stroke:#000;stroke-width:2px;" class="kJPUuMpX_6"></path><path d="M544.58,275.621l0,20.108" style="fill:none;stroke:#000;stroke-width:2px;" class="kJPUuMpX_7"></path><path d="M646.731,278.061l0,26.879" style="fill:none;stroke:#000;stroke-width:2px;" class="kJPUuMpX_8"></path><path d="M646.731,278.061l0,26.879" style="fill:none;stroke:#000;stroke-width:2px;" class="kJPUuMpX_9"></path><path d="M654.154,287.644l0,18.296" style="fill:none;stroke:#000;stroke-width:2px;" class="kJPUuMpX_10"></path><path d="M667.974,285.132l0,21.901" style="fill:none;stroke:#000;stroke-width:2px;" class="kJPUuMpX_11"></path><path d="M681.577,284.39l0,23.901" style="fill:none;stroke:#000;stroke-width:2px;" class="kJPUuMpX_12"></path><path d="M695.507,287.226l0,22.56" style="fill:none;stroke:#000;stroke-width:2px;" class="kJPUuMpX_13"></path><path d="M709.11,291.472l0,19.252" style="fill:none;stroke:#000;stroke-width:2px;" class="kJPUuMpX_14"></path><path d="M723.037,293.92l0,18.296" style="fill:none;stroke:#000;stroke-width:2px;" class="kJPUuMpX_15"></path><path d="M657.369,286.86l0,19.245" style="fill:none;stroke:#000;stroke-width:2px;" class="kJPUuMpX_16"></path><path d="M671.188,284.838l0,22.601" style="fill:none;stroke:#000;stroke-width:2px;" class="kJPUuMpX_17"></path><path d="M684.791,284.502l0,24.081" style="fill:none;stroke:#000;stroke-width:2px;" class="kJPUuMpX_18"></path><path d="M698.721,288.042l0,21.973" style="fill:none;stroke:#000;stroke-width:2px;" class="kJPUuMpX_19"></path><path d="M712.325,292.079l0,19.304" style="fill:none;stroke:#000;stroke-width:2px;" class="kJPUuMpX_20"></path><path d="M726.251,294.92l0,17.822" style="fill:none;stroke:#000;stroke-width:2px;" class="kJPUuMpX_21"></path><path d="M660.801,286.07l0,20.207" style="fill:none;stroke:#000;stroke-width:2px;" class="kJPUuMpX_22"></path><path d="M674.62,284.602l0,23.4" style="fill:none;stroke:#000;stroke-width:2px;" class="kJPUuMpX_23"></path><path d="M688.223,284.868l0,24.167" style="fill:none;stroke:#000;stroke-width:2px;" class="kJPUuMpX_24"></path><path d="M702.153,288.981l0,21.547" style="fill:none;stroke:#000;stroke-width:2px;" class="kJPUuMpX_25"></path><path d="M715.757,292.904l0,18.753" style="fill:none;stroke:#000;stroke-width:2px;" class="kJPUuMpX_26"></path><path d="M729.683,296.29l0,16.803" style="fill:none;stroke:#000;stroke-width:2px;" class="kJPUuMpX_27"></path><path d="M664.244,285.541l0,21.084" style="fill:none;stroke:#000;stroke-width:2px;" class="kJPUuMpX_28"></path><path d="M678.063,284.55l0,23.539" style="fill:none;stroke:#000;stroke-width:2px;" class="kJPUuMpX_29"></path><path d="M691.666,285.792l0,23.557" style="fill:none;stroke:#000;stroke-width:2px;" class="kJPUuMpX_30"></path><path d="M705.596,290.178l0,20.48" style="fill:none;stroke:#000;stroke-width:2px;" class="kJPUuMpX_31"></path><path d="M719.2,293.138l0,18.972" style="fill:none;stroke:#000;stroke-width:2px;" class="kJPUuMpX_32"></path><path d="M733.126,297.318l0,16.366" style="fill:none;stroke:#000;stroke-width:2px;" class="kJPUuMpX_33"></path><path d="M736.265,300.485l0,13.761" style="fill:none;stroke:#000;stroke-width:2px;" class="kJPUuMpX_34"></path><path d="M642.08,277.351l0,26.818" style="fill:none;stroke:#000;stroke-width:2px;" class="kJPUuMpX_35"></path><path d="M637.89,276.223l0,27.295" style="fill:none;stroke:#000;stroke-width:2px;" class="kJPUuMpX_36"></path><path d="M634.058,275.267l0,27.772" style="fill:none;stroke:#000;stroke-width:2px;" class="kJPUuMpX_37"></path><path d="M629.896,274.277l0,28.335" style="fill:none;stroke:#000;stroke-width:2px;" class="kJPUuMpX_38"></path><path d="M625.447,273.413l0,28.459" style="fill:none;stroke:#000;stroke-width:2px;" class="kJPUuMpX_39"></path><path d="M547.934,274.621l0,21.239" style="fill:none;stroke:#000;stroke-width:2px;" class="kJPUuMpX_40"></path><path d="M541.046,297.654l0.196,-23.7c0,0 20.909,-9.918 58.27,-5.917c37.361,4 51.285,7.436 51.285,7.436l-0.151,31.863" style="fill:none;stroke:#000;stroke-width:2px;" class="kJPUuMpX_41"></path><path d="M550.826,291.151c0,0 21.089,-3.799 35.129,-3.747c14.041,0.053 34.244,3.98 34.244,3.98l0.156,-20.933" style="fill:none;stroke:#000;stroke-width:2px;" class="kJPUuMpX_42"></path><path d="M784,321.897c0,0 -145.503,-16.125 -171.93,-18.143c-26.428,-2.018 -196.42,-18.944 -196.42,3.157c0,22.1 8.255,468.496 8.255,474.898c0,6.401 15.786,9.156 29.638,9.156c13.853,0 560.927,-18.937 578.72,-22.917c14.42,-3.225 12.455,-4.555 12.485,-8.092c0.03,-3.538 0.354,-26.642 0.354,-26.642" style="fill:none;stroke:#000;stroke-width:2px;" class="kJPUuMpX_43"></path><path d="M423.325,747.192c0,0 8.475,10.025 35.227,10.133c26.753,0.108 563.296,-9.729 585.945,-13.171" style="fill:none;stroke:#000;stroke-width:2px;" class="kJPUuMpX_44"></path><path d="M416.805,418.663c0,0 11.14,-3.692 23.905,-4.027c53.279,-1.396 229.138,9.791 229.138,9.791" style="fill:none;stroke:#000;stroke-width:2px;" class="kJPUuMpX_45"></path><path style="fill:none;stroke:#000;stroke-width:2px;" d="M679.169,441.07A14.367,20.872 0,1,1 707.9029999999999,441.07A14.367,20.872 0,1,1 679.169,441.07" class="kJPUuMpX_46"></path><path style="fill:none;stroke:#000;stroke-width:2px;" d="M675.659,440.652A16.487,26.762 0,1,1 708.6329999999999,440.652A16.487,26.762 0,1,1 675.659,440.652" class="kJPUuMpX_47"></path><path style="fill:none;stroke:#000;stroke-width:2px;" d="M667.3259999999999,440.794A23.099,34.541 0,1,1 713.524,440.794A23.099,34.541 0,1,1 667.3259999999999,440.794" class="kJPUuMpX_48"></path><path d="M804.67,434.139c0,0 -48.304,-2.714 -58.506,-3.448c-10.202,-0.735 -34.413,-3.301 -34.413,-3.301" style="fill:none;stroke:#000;stroke-width:2px;" class="kJPUuMpX_49"></path><path d="M842.234,412.163c0,0 -174.561,-10.844 -208.247,-13.236c-33.664,-2.392 -67.367,-5.515 -67.367,-5.515" style="fill:none;stroke:#000;stroke-width:2px;" class="kJPUuMpX_50"></path><path d="M738.949,317.005c0,0 0.022,-7.591 -0.022,-13.541c-0.043,-5.949 -7.821,-11.971 -23.063,-14.246c-7.255,-1.082 -19.991,-8.132 -40.008,-7.066c-20.017,1.065 -24.789,3.724 -24.789,3.724" style="fill:none;stroke:#000;stroke-width:2px;" class="kJPUuMpX_51"></path><path d="M783.361,317.519l0.123,-28.269l271.34,48.563l0.12,65.887" style="fill:none;stroke:#000;stroke-width:2px;" class="kJPUuMpX_52"></path><path d="M1097.96,496.573c0,0 -11.7,-21.709 -24.254,-0.998c-12.555,20.71 -3.705,54.858 13.327,55.676" style="fill:none;stroke:#000;stroke-width:2px;" class="kJPUuMpX_53"></path><path d="M1037.32,460.321c0,0 66.483,14.699 68.234,92.351c1.752,77.651 -21.988,123.512 -64.658,119.982" style="fill:none;stroke:#000;stroke-width:2px;" class="kJPUuMpX_54"></path><path d="M1030.45,470.947c0,0 15.43,-3.118 34.749,13.384c19.254,16.447 42.015,88.835 16.802,149.243c-16.295,39.04 -48.451,28.109 -48.451,28.109" style="fill:none;stroke:#000;stroke-width:2px;" class="kJPUuMpX_55"></path><path d="M1026.55,650.837c0,0 41.642,-19.088 68.328,-45.467c27.056,-26.746 46.164,-58.818 46.164,-58.818c0,0 2.365,25.185 -0.019,45.783c-2.383,20.597 -10.086,41.026 -10.086,41.026" style="fill:none;stroke:#000;stroke-width:2px;" class="kJPUuMpX_56"></path><path d="M1060.36,501.419c0,0 -16.984,-17.347 -32.928,-19.85" style="fill:none;stroke:#000;stroke-width:2px;" class="kJPUuMpX_57"></path><path d="M1023.95,491.382c0,0 7.842,4.45 13.959,9.105c5.967,4.542 8.797,10.294 8.797,10.294" style="fill:none;stroke:#000;stroke-width:2px;" class="kJPUuMpX_58"></path><path style="fill:none;stroke:#000;stroke-width:2px;" d="M1004.967,567.408A72.053,126.447 0,1,1 1149.0729999999999,567.408A72.053,126.447 0,1,1 1004.967,567.408" class="kJPUuMpX_59"></path><path style="fill:none;stroke:#000;stroke-width:2px;" d="M1000.98,565.65A92.26,143.258 0,1,1 1185.5,565.65A92.26,143.258 0,1,1 1000.98,565.65" class="kJPUuMpX_60"></path><path d="M1081.45,423.605c1.756,-1.007 80.966,10.356 84.253,141.224c3.352,133.447 -73.306,144.953 -77.472,143.842" style="fill:none;stroke:#000;stroke-width:2px;" class="kJPUuMpX_61"></path><path d="M811.528,481.328l-4.784,1.476l-0.052,8.187" style="fill:none;stroke:#000;stroke-width:2px;" class="kJPUuMpX_62"></path><path d="M936.732,475.869c0,0 12.139,-42.132 50.989,-65.349c38.85,-23.217 66.166,-6.215 70.202,-3.699" style="fill:none;stroke:#000;stroke-width:2px;" class="kJPUuMpX_63"></path><path style="fill:none;stroke:#000;stroke-width:2px;" d="M988.6449999999999,566.682A104.215,161.12 0,1,1 1197.0749999999998,566.682A104.215,161.12 0,1,1 988.6449999999999,566.682" class="kJPUuMpX_64"></path><path d="M1039.17,408.668c0,0 -34.098,5.434 -55.867,39.253c-14.023,21.785 -19.122,45.585 -19.122,45.585" style="fill:none;stroke:#000;stroke-width:2px;" class="kJPUuMpX_65"></path><path d="M962.255,487.351c0,0 -24.974,78.936 -0.637,147.63c24.052,67.886 65.669,96.522 100.688,94.166" style="fill:none;stroke:#000;stroke-width:2px;" class="kJPUuMpX_66"></path><path d="M1092.69,405.55c0,0 -67.174,3.843 -72.687,4.365c-5.513,0.521 -84.533,15.643 -88.537,137.526c-4.003,121.882 52.988,187.162 112.084,183.458c11.154,-0.7 41.909,-3.569 41.909,-3.569" style="fill:none;stroke:#000;stroke-width:2px;" class="kJPUuMpX_67"></path><path d="M814.685,475.319l-6.001,-2.282l-6.453,3.74l-0.034,9.245l4.45,5.039l7.666,-3.65" style="fill:none;stroke:#000;stroke-width:2px;" class="kJPUuMpX_68"></path><path d="M730.38,293.224c0,0 50.356,-6.729 52.911,-6.729c2.555,0 271.704,47.682 271.704,47.682" style="fill:none;stroke:#000;stroke-width:2px;" class="kJPUuMpX_69"></path><path d="M1015.84,399.193c0,0 -29.702,0.274 -32.704,0.388c-3.002,0.113 -38.27,12.857 -57.636,49.869c-19.366,37.012 -54.228,141.011 -0.817,233.392c46.604,80.609 144.02,46.832 144.02,46.832" style="fill:none;stroke:#000;stroke-width:2px;" class="kJPUuMpX_70"></path><path d="M923.814,529.401c-2.29,10.91 -8.921,89.194 20.488,140.311c23.682,41.164 49.004,64.005 76.452,67.031" style="fill:none;stroke:#000;stroke-width:2px;" class="kJPUuMpX_71"></path><path d="M903.747,630.72l24.906,0" style="fill:none;stroke:#000;stroke-width:2px;" class="kJPUuMpX_72"></path><path d="M907.397,642.686l24.905,0" style="fill:none;stroke:#000;stroke-width:2px;" class="kJPUuMpX_73"></path><path d="M910.768,653.066l24.905,0" style="fill:none;stroke:#000;stroke-width:2px;" class="kJPUuMpX_74"></path><path d="M915.673,664.081l24.905,0" style="fill:none;stroke:#000;stroke-width:2px;" class="kJPUuMpX_75"></path><path d="M919.931,673.49l26.335,0" style="fill:none;stroke:#000;stroke-width:2px;" class="kJPUuMpX_76"></path><path d="M923.756,680.458l26.335,0" style="fill:none;stroke:#000;stroke-width:2px;" class="kJPUuMpX_77"></path><path d="M930.59,691.642l27.4,0" style="fill:none;stroke:#000;stroke-width:2px;" class="kJPUuMpX_78"></path><path d="M933.916,695.906l27.401,0" style="fill:none;stroke:#000;stroke-width:2px;" class="kJPUuMpX_79"></path><path d="M937,699.844l27.401,0" style="fill:none;stroke:#000;stroke-width:2px;" class="kJPUuMpX_80"></path><path d="M940.518,703.799l27.401,0" style="fill:none;stroke:#000;stroke-width:2px;" class="kJPUuMpX_81"></path><path d="M943.481,707.203l27.401,0" style="fill:none;stroke:#000;stroke-width:2px;" class="kJPUuMpX_82"></path><path d="M947.444,710.531l25.958,0" style="fill:none;stroke:#000;stroke-width:2px;" class="kJPUuMpX_83"></path><path d="M951.329,713.903l25.462,0" style="fill:none;stroke:#000;stroke-width:2px;" class="kJPUuMpX_84"></path><path d="M955.737,717.156l25.012,0" style="fill:none;stroke:#000;stroke-width:2px;" class="kJPUuMpX_85"></path><path d="M959.637,719.745l23.701,0" style="fill:none;stroke:#000;stroke-width:2px;" class="kJPUuMpX_86"></path><path d="M963.538,722.228l23.552,0" style="fill:none;stroke:#000;stroke-width:2px;" class="kJPUuMpX_87"></path><path d="M967.593,724.512l22.564,0" style="fill:none;stroke:#000;stroke-width:2px;" class="kJPUuMpX_88"></path><path d="M972.316,726.731l21.451,0" style="fill:none;stroke:#000;stroke-width:2px;" class="kJPUuMpX_89"></path><path d="M977.497,728.831l20.102,0" style="fill:none;stroke:#000;stroke-width:2px;" class="kJPUuMpX_90"></path><path d="M983.294,730.901l18.154,0" style="fill:none;stroke:#000;stroke-width:2px;" class="kJPUuMpX_91"></path><path d="M990.281,732.972l16.599,0" style="fill:none;stroke:#000;stroke-width:2px;" class="kJPUuMpX_92"></path><path d="M1000.75,735.049l11.112,0" style="fill:none;stroke:#000;stroke-width:2px;" class="kJPUuMpX_93"></path><path d="M927.755,686.737l27.019,0" style="fill:none;stroke:#000;stroke-width:2px;" class="kJPUuMpX_94"></path><path d="M965.307,401.974c0,0 -49.794,4.193 -55.581,5.181c-5.786,0.988 -52.31,20.401 -71.36,69.431c-18.953,48.785 -27.272,97.249 -10.026,153.642c10.96,35.836 13.731,40.166 13.731,40.166" style="fill:none;stroke:#000;stroke-width:2px;" class="kJPUuMpX_95"></path><path d="M908.383,407.356c0,0 -38.215,1.946 -44.375,2.08c-10.034,0.218 -60.283,22.652 -77.249,80.038c-21.422,72.465 -18.23,156.59 34.35,214.406c29.615,32.564 54.405,33.073 54.405,33.073" style="fill:none;stroke:#000;stroke-width:2px;" class="kJPUuMpX_96"></path><path d="M887.659,631.59l-45.889,0l-15.152,41.461c0,0 30.35,18.115 39.97,32.89c9.62,14.775 10.121,38.181 11.965,43.165c2.121,5.733 44.687,-7.251 46.988,-9.255c1.376,-1.198 11.195,-9.822 11.007,-11.082c-0.188,-1.26 -2.623,-4.805 -6.607,-8.392c-3.984,-3.586 -32.712,-43.516 -35.973,-49.729c-3.477,-6.625 -20.022,-15.808 -20.022,-15.808" style="fill:none;stroke:#000;stroke-width:2px;" class="kJPUuMpX_97"></path><path d="M839.142,638.671l40.805,0" style="fill:none;stroke:#000;stroke-width:2px;" class="kJPUuMpX_98"></path><path d="M837.169,645.633l40.805,0" style="fill:none;stroke:#000;stroke-width:2px;" class="kJPUuMpX_99"></path><path d="M835.756,652.399l40.806,0" style="fill:none;stroke:#000;stroke-width:2px;" class="kJPUuMpX_100"></path><path d="M777.917,529.44l44.476,0" style="fill:none;stroke:#000;stroke-width:2px;" class="kJPUuMpX_101"></path><path d="M777.3,534.057l44.476,0" style="fill:none;stroke:#000;stroke-width:2px;" class="kJPUuMpX_102"></path><path d="M777.017,538.574l44.476,0" style="fill:none;stroke:#000;stroke-width:2px;" class="kJPUuMpX_103"></path><path d="M775.939,543.474l44.476,0" style="fill:none;stroke:#000;stroke-width:2px;" class="kJPUuMpX_104"></path><path d="M775.502,548.966l44.476,0" style="fill:none;stroke:#000;stroke-width:2px;" class="kJPUuMpX_105"></path><path d="M775.148,555.265l44.476,0" style="fill:none;stroke:#000;stroke-width:2px;" class="kJPUuMpX_106"></path><path d="M774.619,561.732l44.476,0" style="fill:none;stroke:#000;stroke-width:2px;" class="kJPUuMpX_107"></path><path d="M774.702,566.334l44.476,0" style="fill:none;stroke:#000;stroke-width:2px;" class="kJPUuMpX_108"></path><path d="M774.732,570.336l44.476,0" style="fill:none;stroke:#000;stroke-width:2px;" class="kJPUuMpX_109"></path><path d="M774.732,574.85l44.476,0" style="fill:none;stroke:#000;stroke-width:2px;" class="kJPUuMpX_110"></path><path d="M774.909,579.613l44.476,0" style="fill:none;stroke:#000;stroke-width:2px;" class="kJPUuMpX_111"></path><path d="M774.953,583.612l44.476,0" style="fill:none;stroke:#000;stroke-width:2px;" class="kJPUuMpX_112"></path><path d="M775.182,588.726l44.476,0" style="fill:none;stroke:#000;stroke-width:2px;" class="kJPUuMpX_113"></path><path d="M775.478,593.214l44.476,0" style="fill:none;stroke:#000;stroke-width:2px;" class="kJPUuMpX_114"></path><path d="M776.064,597.963l44.476,0" style="fill:none;stroke:#000;stroke-width:2px;" class="kJPUuMpX_115"></path><path d="M776.83,602.845l44.476,0" style="fill:none;stroke:#000;stroke-width:2px;" class="kJPUuMpX_116"></path><path d="M777.922,609.386l44.475,0" style="fill:none;stroke:#000;stroke-width:2px;" class="kJPUuMpX_117"></path><path d="M778.807,616.129l45.625,0" style="fill:none;stroke:#000;stroke-width:2px;" class="kJPUuMpX_118"></path><path d="M779.84,621.53l45.844,0" style="fill:none;stroke:#000;stroke-width:2px;" class="kJPUuMpX_119"></path><path d="M781.294,626.936l45.844,0" style="fill:none;stroke:#000;stroke-width:2px;" class="kJPUuMpX_120"></path><path d="M783.126,632.726l45.844,0" style="fill:none;stroke:#000;stroke-width:2px;" class="kJPUuMpX_121"></path><path d="M784.713,638.268l45.844,0" style="fill:none;stroke:#000;stroke-width:2px;" class="kJPUuMpX_122"></path><path d="M786.291,644.655l45.845,0" style="fill:none;stroke:#000;stroke-width:2px;" class="kJPUuMpX_123"></path><path d="M788.675,651.264l45.844,0" style="fill:none;stroke:#000;stroke-width:2px;" class="kJPUuMpX_124"></path><path d="M790.962,657.06l45.844,0" style="fill:none;stroke:#000;stroke-width:2px;" class="kJPUuMpX_125"></path><path d="M792.854,662.091l45.845,0" style="fill:none;stroke:#000;stroke-width:2px;" class="kJPUuMpX_126"></path><path d="M795.475,667.358l45.001,0" style="fill:none;stroke:#000;stroke-width:2px;" class="kJPUuMpX_127"></path><path d="M799.214,673.053l34.894,0" style="fill:none;stroke:#000;stroke-width:2px;" class="kJPUuMpX_128"></path><path d="M802.887,679.566l33.977,0" style="fill:none;stroke:#000;stroke-width:2px;" class="kJPUuMpX_129"></path><path d="M806.232,684.246l36.99,0" style="fill:none;stroke:#000;stroke-width:2px;" class="kJPUuMpX_130"></path><path d="M809.774,689.746l40.777,0" style="fill:none;stroke:#000;stroke-width:2px;" class="kJPUuMpX_131"></path><path d="M815.688,696.998l43.091,-0.011" style="fill:none;stroke:#000;stroke-width:2px;" class="kJPUuMpX_132"></path><path d="M821.015,703.429l43.652,-0.011" style="fill:none;stroke:#000;stroke-width:2px;" class="kJPUuMpX_133"></path><path d="M827.924,710.499l41.054,-0.011" style="fill:none;stroke:#000;stroke-width:2px;" class="kJPUuMpX_134"></path><path d="M835.308,717.429l36.528,-0.01" style="fill:none;stroke:#000;stroke-width:2px;" class="kJPUuMpX_135"></path><path d="M842.65,722.804l30.769,-0.008" style="fill:none;stroke:#000;stroke-width:2px;" class="kJPUuMpX_136"></path><path d="M850.71,728.255l24.057,-0.006" style="fill:none;stroke:#000;stroke-width:2px;" class="kJPUuMpX_137"></path><path d="M859.142,732.686l16.655,-0.005" style="fill:none;stroke:#000;stroke-width:2px;" class="kJPUuMpX_138"></path><path d="M830.133,674.897c0,0 39.223,-15.882 42.964,-16.12c3.74,-0.239 14.947,10.852 15.953,13.305c1.006,2.453 2.864,6.394 6.59,10.527c3.725,4.134 22.122,30.069 25.707,41.068c2.26,6.934 2.162,16.836 2.162,16.836" style="fill:none;stroke:#000;stroke-width:2px;" class="kJPUuMpX_139"></path><path d="M982.028,399.654c0,0 -37.015,-0.504 -63.974,33.261c-26.96,33.765 -50.515,99.481 -39.66,161.252c10.856,61.771 41.838,134.044 91.703,144.601" style="fill:none;stroke:#000;stroke-width:2px;" class="kJPUuMpX_140"></path><path d="M983.283,399.582c0,0 -44.096,-0.268 -75.03,59.956c-30.933,60.224 -39.383,132.984 2.354,214.148c30.495,59.302 75.483,64.62 75.483,64.62" style="fill:none;stroke:#000;stroke-width:2px;" class="kJPUuMpX_141"></path><path d="M863.129,409.457c0,0 -79.839,11.603 -94.059,126.488c-10.746,86.819 26.376,198.397 106.864,201.54" style="fill:none;stroke:#000;stroke-width:2px;" class="kJPUuMpX_142"></path><path d="M863.706,409.472c-0.609,-0.032 -78.052,-4.213 -99.094,125.684c-11.726,72.39 15.301,137.443 38.061,161.27c22.76,23.827 42.044,40.013 73.416,41.724" style="fill:none;stroke:#000;stroke-width:2px;" class="kJPUuMpX_143"></path><path d="M758.297,536.106c0,0 3.972,-56.839 37.34,-93.317c29.401,-32.141 56.043,-32.152 56.043,-32.152" style="fill:none;stroke:#000;stroke-width:2px;" class="kJPUuMpX_144"></path><path d="M758.663,605.927c0,0 12.62,66.83 41.121,98.007c17.099,18.704 41.897,29.386 52.75,29.16" style="fill:none;stroke:#000;stroke-width:2px;" class="kJPUuMpX_145"></path><path d="M733.056,537.48c0,0 -24.902,2.171 -23.77,34.161c1.132,31.989 21.722,34.674 21.722,34.674" style="fill:none;stroke:#000;stroke-width:2px;" class="kJPUuMpX_146"></path><path style="fill:none;stroke:#000;stroke-width:2px;" d="M729.192,571.794A12.956,22.562 0,1,1 755.104,571.794A12.956,22.562 0,1,1 729.192,571.794" class="kJPUuMpX_147"></path><path style="fill:none;stroke:#000;stroke-width:2px;" d="M723.5409999999999,571.74A17.628,28.197 0,1,1 758.797,571.74A17.628,28.197 0,1,1 723.5409999999999,571.74" class="kJPUuMpX_148"></path><path d="M764.752,536.681c0,0 -26.778,0.451 -29.613,0.451c-2.834,0 -18.094,3.941 -18.094,36.125c0,32.185 16.095,34.142 18.759,34.142c2.663,0 35.042,-1.266 35.042,-1.266" style="fill:none;stroke:#000;stroke-width:2px;" class="kJPUuMpX_149"></path><path d="M854.694,358.396c0,0 14.231,-1.261 13.018,-5.336c-1.213,-4.075 -7.692,-0.409 -8.956,9.19c-1.265,9.598 -6.628,12.374 -6.628,10.301c0,-2.074 12.684,1.692 14.487,1.71c10.276,0.097 15.376,-4.641 15.376,-4.641" style="fill:none;stroke:#000;stroke-width:1px;" class="kJPUuMpX_150"></path></g><style>.kJPUuMpX_0{stroke-dasharray:75 77;stroke-dashoffset:76;}.start-svg .kJPUuMpX_0{animation:kJPUuMpX_draw 30ms ease-in 0ms forwards;}.kJPUuMpX_1{stroke-dasharray:45 47;stroke-dashoffset:46;}.start-svg .kJPUuMpX_1{animation:kJPUuMpX_draw 18ms ease-in 30ms forwards;}.kJPUuMpX_2{stroke-dasharray:173 175;stroke-dashoffset:174;}.start-svg .kJPUuMpX_2{animation:kJPUuMpX_draw 68ms ease-in 48ms forwards;}.kJPUuMpX_3{stroke-dasharray:175 177;stroke-dashoffset:176;}.start-svg .kJPUuMpX_3{animation:kJPUuMpX_draw 69ms ease-in 117ms forwards;}.kJPUuMpX_4{stroke-dasharray:68 70;stroke-dashoffset:69;}.start-svg .kJPUuMpX_4{animation:kJPUuMpX_draw 27ms ease-in 186ms forwards;}.kJPUuMpX_5{stroke-dasharray:159 161;stroke-dashoffset:160;}.start-svg .kJPUuMpX_5{animation:kJPUuMpX_draw 63ms ease-in 214ms forwards;}.kJPUuMpX_6{stroke-dasharray:131 133;stroke-dashoffset:132;}.start-svg .kJPUuMpX_6{animation:kJPUuMpX_draw 52ms ease-in 277ms forwards;}.kJPUuMpX_7{stroke-dasharray:21 23;stroke-dashoffset:22;}.start-svg .kJPUuMpX_7{animation:kJPUuMpX_draw 8ms ease-in 329ms forwards;}.kJPUuMpX_8{stroke-dasharray:27 29;stroke-dashoffset:28;}.start-svg .kJPUuMpX_8{animation:kJPUuMpX_draw 11ms ease-in 338ms forwards;}.kJPUuMpX_9{stroke-dasharray:27 29;stroke-dashoffset:28;}.start-svg .kJPUuMpX_9{animation:kJPUuMpX_draw 11ms ease-in 349ms forwards;}.kJPUuMpX_10{stroke-dasharray:19 21;stroke-dashoffset:20;}.start-svg .kJPUuMpX_10{animation:kJPUuMpX_draw 7ms ease-in 360ms forwards;}.kJPUuMpX_11{stroke-dasharray:22 24;stroke-dashoffset:23;}.start-svg .kJPUuMpX_11{animation:kJPUuMpX_draw 9ms ease-in 368ms forwards;}.kJPUuMpX_12{stroke-dasharray:24 26;stroke-dashoffset:25;}.start-svg .kJPUuMpX_12{animation:kJPUuMpX_draw 9ms ease-in 377ms forwards;}.kJPUuMpX_13{stroke-dasharray:23 25;stroke-dashoffset:24;}.start-svg .kJPUuMpX_13{animation:kJPUuMpX_draw 9ms ease-in 387ms forwards;}.kJPUuMpX_14{stroke-dasharray:20 22;stroke-dashoffset:21;}.start-svg .kJPUuMpX_14{animation:kJPUuMpX_draw 8ms ease-in 396ms forwards;}.kJPUuMpX_15{stroke-dasharray:19 21;stroke-dashoffset:20;}.start-svg .kJPUuMpX_15{animation:kJPUuMpX_draw 7ms ease-in 405ms forwards;}.kJPUuMpX_16{stroke-dasharray:20 22;stroke-dashoffset:21;}.start-svg .kJPUuMpX_16{animation:kJPUuMpX_draw 8ms ease-in 413ms forwards;}.kJPUuMpX_17{stroke-dasharray:23 25;stroke-dashoffset:24;}.start-svg .kJPUuMpX_17{animation:kJPUuMpX_draw 9ms ease-in 421ms forwards;}.kJPUuMpX_18{stroke-dasharray:25 27;stroke-dashoffset:26;}.start-svg .kJPUuMpX_18{animation:kJPUuMpX_draw 10ms ease-in 430ms forwards;}.kJPUuMpX_19{stroke-dasharray:22 24;stroke-dashoffset:23;}.start-svg .kJPUuMpX_19{animation:kJPUuMpX_draw 9ms ease-in 441ms forwards;}.kJPUuMpX_20{stroke-dasharray:20 22;stroke-dashoffset:21;}.start-svg .kJPUuMpX_20{animation:kJPUuMpX_draw 8ms ease-in 450ms forwards;}.kJPUuMpX_21{stroke-dasharray:18 20;stroke-dashoffset:19;}.start-svg .kJPUuMpX_21{animation:kJPUuMpX_draw 7ms ease-in 458ms forwards;}.kJPUuMpX_22{stroke-dasharray:21 23;stroke-dashoffset:22;}.start-svg .kJPUuMpX_22{animation:kJPUuMpX_draw 8ms ease-in 466ms forwards;}.kJPUuMpX_23{stroke-dasharray:24 26;stroke-dashoffset:25;}.start-svg .kJPUuMpX_23{animation:kJPUuMpX_draw 9ms ease-in 474ms forwards;}.kJPUuMpX_24{stroke-dasharray:25 27;stroke-dashoffset:26;}.start-svg .kJPUuMpX_24{animation:kJPUuMpX_draw 10ms ease-in 484ms forwards;}.kJPUuMpX_25{stroke-dasharray:22 24;stroke-dashoffset:23;}.start-svg .kJPUuMpX_25{animation:kJPUuMpX_draw 9ms ease-in 495ms forwards;}.kJPUuMpX_26{stroke-dasharray:19 21;stroke-dashoffset:20;}.start-svg .kJPUuMpX_26{animation:kJPUuMpX_draw 7ms ease-in 504ms forwards;}.kJPUuMpX_27{stroke-dasharray:17 19;stroke-dashoffset:18;}.start-svg .kJPUuMpX_27{animation:kJPUuMpX_draw 7ms ease-in 512ms forwards;}.kJPUuMpX_28{stroke-dasharray:22 24;stroke-dashoffset:23;}.start-svg .kJPUuMpX_28{animation:kJPUuMpX_draw 9ms ease-in 519ms forwards;}.kJPUuMpX_29{stroke-dasharray:24 26;stroke-dashoffset:25;}.start-svg .kJPUuMpX_29{animation:kJPUuMpX_draw 9ms ease-in 528ms forwards;}.kJPUuMpX_30{stroke-dasharray:24 26;stroke-dashoffset:25;}.start-svg .kJPUuMpX_30{animation:kJPUuMpX_draw 9ms ease-in 538ms forwards;}.kJPUuMpX_31{stroke-dasharray:21 23;stroke-dashoffset:22;}.start-svg .kJPUuMpX_31{animation:kJPUuMpX_draw 8ms ease-in 548ms forwards;}.kJPUuMpX_32{stroke-dasharray:19 21;stroke-dashoffset:20;}.start-svg .kJPUuMpX_32{animation:kJPUuMpX_draw 7ms ease-in 556ms forwards;}.kJPUuMpX_33{stroke-dasharray:17 19;stroke-dashoffset:18;}.start-svg .kJPUuMpX_33{animation:kJPUuMpX_draw 7ms ease-in 564ms forwards;}.kJPUuMpX_34{stroke-dasharray:14 16;stroke-dashoffset:15;}.start-svg .kJPUuMpX_34{animation:kJPUuMpX_draw 5ms ease-in 571ms forwards;}.kJPUuMpX_35{stroke-dasharray:27 29;stroke-dashoffset:28;}.start-svg .kJPUuMpX_35{animation:kJPUuMpX_draw 11ms ease-in 577ms forwards;}.kJPUuMpX_36{stroke-dasharray:28 30;stroke-dashoffset:29;}.start-svg .kJPUuMpX_36{animation:kJPUuMpX_draw 11ms ease-in 588ms forwards;}.kJPUuMpX_37{stroke-dasharray:28 30;stroke-dashoffset:29;}.start-svg .kJPUuMpX_37{animation:kJPUuMpX_draw 11ms ease-in 600ms forwards;}.kJPUuMpX_38{stroke-dasharray:29 31;stroke-dashoffset:30;}.start-svg .kJPUuMpX_38{animation:kJPUuMpX_draw 11ms ease-in 611ms forwards;}.kJPUuMpX_39{stroke-dasharray:29 31;stroke-dashoffset:30;}.start-svg .kJPUuMpX_39{animation:kJPUuMpX_draw 11ms ease-in 623ms forwards;}.kJPUuMpX_40{stroke-dasharray:22 24;stroke-dashoffset:23;}.start-svg .kJPUuMpX_40{animation:kJPUuMpX_draw 9ms ease-in 635ms forwards;}.kJPUuMpX_41{stroke-dasharray:167 169;stroke-dashoffset:168;}.start-svg .kJPUuMpX_41{animation:kJPUuMpX_draw 66ms ease-in 644ms forwards;}.kJPUuMpX_42{stroke-dasharray:91 93;stroke-dashoffset:92;}.start-svg .kJPUuMpX_42{animation:kJPUuMpX_draw 36ms ease-in 711ms forwards;}.kJPUuMpX_43{stroke-dasharray:1504 1506;stroke-dashoffset:1505;}.start-svg .kJPUuMpX_43{animation:kJPUuMpX_draw 595ms ease-in 747ms forwards;}.kJPUuMpX_44{stroke-dasharray:624 626;stroke-dashoffset:625;}.start-svg .kJPUuMpX_44{animation:kJPUuMpX_draw 247ms ease-in 1343ms forwards;}.kJPUuMpX_45{stroke-dasharray:254 256;stroke-dashoffset:255;}.start-svg .kJPUuMpX_45{animation:kJPUuMpX_draw 100ms ease-in 1590ms forwards;}.kJPUuMpX_46{stroke-dasharray:112 114;stroke-dashoffset:113;}.start-svg .kJPUuMpX_46{animation:kJPUuMpX_draw 44ms ease-in 1691ms forwards;}.kJPUuMpX_47{stroke-dasharray:138 140;stroke-dashoffset:139;}.start-svg .kJPUuMpX_47{animation:kJPUuMpX_draw 55ms ease-in 1735ms forwards;}.kJPUuMpX_48{stroke-dasharray:183 185;stroke-dashoffset:184;}.start-svg .kJPUuMpX_48{animation:kJPUuMpX_draw 72ms ease-in 1790ms forwards;}.kJPUuMpX_49{stroke-dasharray:94 96;stroke-dashoffset:95;}.start-svg .kJPUuMpX_49{animation:kJPUuMpX_draw 37ms ease-in 1863ms forwards;}.kJPUuMpX_50{stroke-dasharray:277 279;stroke-dashoffset:278;}.start-svg .kJPUuMpX_50{animation:kJPUuMpX_draw 110ms ease-in 1901ms forwards;}.kJPUuMpX_51{stroke-dasharray:109 111;stroke-dashoffset:110;}.start-svg .kJPUuMpX_51{animation:kJPUuMpX_draw 43ms ease-in 2011ms forwards;}.kJPUuMpX_52{stroke-dasharray:370 372;stroke-dashoffset:371;}.start-svg .kJPUuMpX_52{animation:kJPUuMpX_draw 146ms ease-in 2054ms forwards;}.kJPUuMpX_53{stroke-dasharray:98 100;stroke-dashoffset:99;}.start-svg .kJPUuMpX_53{animation:kJPUuMpX_draw 39ms ease-in 2201ms forwards;}.kJPUuMpX_54{stroke-dasharray:278 280;stroke-dashoffset:279;}.start-svg .kJPUuMpX_54{animation:kJPUuMpX_draw 110ms ease-in 2240ms forwards;}.kJPUuMpX_55{stroke-dasharray:258 260;stroke-dashoffset:259;}.start-svg .kJPUuMpX_55{animation:kJPUuMpX_draw 102ms ease-in 2351ms forwards;}.kJPUuMpX_56{stroke-dasharray:246 248;stroke-dashoffset:247;}.start-svg .kJPUuMpX_56{animation:kJPUuMpX_draw 97ms ease-in 2453ms forwards;}.kJPUuMpX_57{stroke-dasharray:39 41;stroke-dashoffset:40;}.start-svg .kJPUuMpX_57{animation:kJPUuMpX_draw 15ms ease-in 2551ms forwards;}.kJPUuMpX_58{stroke-dasharray:31 33;stroke-dashoffset:32;}.start-svg .kJPUuMpX_58{animation:kJPUuMpX_draw 12ms ease-in 2567ms forwards;}.kJPUuMpX_59{stroke-dasharray:636 638;stroke-dashoffset:637;}.start-svg .kJPUuMpX_59{animation:kJPUuMpX_draw 252ms ease-in 2579ms forwards;}.kJPUuMpX_60{stroke-dasharray:749 751;stroke-dashoffset:750;}.start-svg .kJPUuMpX_60{animation:kJPUuMpX_draw 296ms ease-in 2832ms forwards;}.kJPUuMpX_61{stroke-dasharray:357 359;stroke-dashoffset:358;}.start-svg .kJPUuMpX_61{animation:kJPUuMpX_draw 141ms ease-in 3128ms forwards;}.kJPUuMpX_62{stroke-dasharray:14 16;stroke-dashoffset:15;}.start-svg .kJPUuMpX_62{animation:kJPUuMpX_draw 5ms ease-in 3270ms forwards;}.kJPUuMpX_63{stroke-dasharray:159 161;stroke-dashoffset:160;}.start-svg .kJPUuMpX_63{animation:kJPUuMpX_draw 63ms ease-in 3276ms forwards;}.kJPUuMpX_64{stroke-dasharray:844 846;stroke-dashoffset:845;}.start-svg .kJPUuMpX_64{animation:kJPUuMpX_draw 334ms ease-in 3339ms forwards;}.kJPUuMpX_65{stroke-dasharray:120 122;stroke-dashoffset:121;}.start-svg .kJPUuMpX_65{animation:kJPUuMpX_draw 47ms ease-in 3674ms forwards;}.kJPUuMpX_66{stroke-dasharray:298 300;stroke-dashoffset:299;}.start-svg .kJPUuMpX_66{animation:kJPUuMpX_draw 118ms ease-in 3721ms forwards;}.kJPUuMpX_67{stroke-dasharray:533 535;stroke-dashoffset:534;}.start-svg .kJPUuMpX_67{animation:kJPUuMpX_draw 211ms ease-in 3840ms forwards;}.kJPUuMpX_68{stroke-dasharray:39 41;stroke-dashoffset:40;}.start-svg .kJPUuMpX_68{animation:kJPUuMpX_draw 15ms ease-in 4051ms forwards;}.kJPUuMpX_69{stroke-dasharray:330 332;stroke-dashoffset:331;}.start-svg .kJPUuMpX_69{animation:kJPUuMpX_draw 130ms ease-in 4067ms forwards;}.kJPUuMpX_70{stroke-dasharray:519 521;stroke-dashoffset:520;}.start-svg .kJPUuMpX_70{animation:kJPUuMpX_draw 205ms ease-in 4198ms forwards;}.kJPUuMpX_71{stroke-dasharray:250 252;stroke-dashoffset:251;}.start-svg .kJPUuMpX_71{animation:kJPUuMpX_draw 99ms ease-in 4404ms forwards;}.kJPUuMpX_72{stroke-dasharray:25 27;stroke-dashoffset:26;}.start-svg .kJPUuMpX_72{animation:kJPUuMpX_draw 10ms ease-in 4503ms forwards;}.kJPUuMpX_73{stroke-dasharray:25 27;stroke-dashoffset:26;}.start-svg .kJPUuMpX_73{animation:kJPUuMpX_draw 10ms ease-in 4513ms forwards;}.kJPUuMpX_74{stroke-dasharray:25 27;stroke-dashoffset:26;}.start-svg .kJPUuMpX_74{animation:kJPUuMpX_draw 10ms ease-in 4524ms forwards;}.kJPUuMpX_75{stroke-dasharray:25 27;stroke-dashoffset:26;}.start-svg .kJPUuMpX_75{animation:kJPUuMpX_draw 10ms ease-in 4534ms forwards;}.kJPUuMpX_76{stroke-dasharray:27 29;stroke-dashoffset:28;}.start-svg .kJPUuMpX_76{animation:kJPUuMpX_draw 11ms ease-in 4544ms forwards;}.kJPUuMpX_77{stroke-dasharray:27 29;stroke-dashoffset:28;}.start-svg .kJPUuMpX_77{animation:kJPUuMpX_draw 11ms ease-in 4555ms forwards;}.kJPUuMpX_78{stroke-dasharray:28 30;stroke-dashoffset:29;}.start-svg .kJPUuMpX_78{animation:kJPUuMpX_draw 11ms ease-in 4566ms forwards;}.kJPUuMpX_79{stroke-dasharray:28 30;stroke-dashoffset:29;}.start-svg .kJPUuMpX_79{animation:kJPUuMpX_draw 11ms ease-in 4578ms forwards;}.kJPUuMpX_80{stroke-dasharray:28 30;stroke-dashoffset:29;}.start-svg .kJPUuMpX_80{animation:kJPUuMpX_draw 11ms ease-in 4589ms forwards;}.kJPUuMpX_81{stroke-dasharray:28 30;stroke-dashoffset:29;}.start-svg .kJPUuMpX_81{animation:kJPUuMpX_draw 11ms ease-in 4601ms forwards;}.kJPUuMpX_82{stroke-dasharray:28 30;stroke-dashoffset:29;}.start-svg .kJPUuMpX_82{animation:kJPUuMpX_draw 11ms ease-in 4612ms forwards;}.kJPUuMpX_83{stroke-dasharray:26 28;stroke-dashoffset:27;}.start-svg .kJPUuMpX_83{animation:kJPUuMpX_draw 10ms ease-in 4624ms forwards;}.kJPUuMpX_84{stroke-dasharray:26 28;stroke-dashoffset:27;}.start-svg .kJPUuMpX_84{animation:kJPUuMpX_draw 10ms ease-in 4634ms forwards;}.kJPUuMpX_85{stroke-dasharray:26 28;stroke-dashoffset:27;}.start-svg .kJPUuMpX_85{animation:kJPUuMpX_draw 10ms ease-in 4645ms forwards;}.kJPUuMpX_86{stroke-dasharray:24 26;stroke-dashoffset:25;}.start-svg .kJPUuMpX_86{animation:kJPUuMpX_draw 9ms ease-in 4656ms forwards;}.kJPUuMpX_87{stroke-dasharray:24 26;stroke-dashoffset:25;}.start-svg .kJPUuMpX_87{animation:kJPUuMpX_draw 9ms ease-in 4666ms forwards;}.kJPUuMpX_88{stroke-dasharray:23 25;stroke-dashoffset:24;}.start-svg .kJPUuMpX_88{animation:kJPUuMpX_draw 9ms ease-in 4676ms forwards;}.kJPUuMpX_89{stroke-dasharray:22 24;stroke-dashoffset:23;}.start-svg .kJPUuMpX_89{animation:kJPUuMpX_draw 9ms ease-in 4685ms forwards;}.kJPUuMpX_90{stroke-dasharray:21 23;stroke-dashoffset:22;}.start-svg .kJPUuMpX_90{animation:kJPUuMpX_draw 8ms ease-in 4694ms forwards;}.kJPUuMpX_91{stroke-dasharray:19 21;stroke-dashoffset:20;}.start-svg .kJPUuMpX_91{animation:kJPUuMpX_draw 7ms ease-in 4703ms forwards;}.kJPUuMpX_92{stroke-dasharray:17 19;stroke-dashoffset:18;}.start-svg .kJPUuMpX_92{animation:kJPUuMpX_draw 7ms ease-in 4711ms forwards;}.kJPUuMpX_93{stroke-dasharray:12 14;stroke-dashoffset:13;}.start-svg .kJPUuMpX_93{animation:kJPUuMpX_draw 5ms ease-in 4718ms forwards;}.kJPUuMpX_94{stroke-dasharray:28 30;stroke-dashoffset:29;}.start-svg .kJPUuMpX_94{animation:kJPUuMpX_draw 11ms ease-in 4723ms forwards;}.kJPUuMpX_95{stroke-dasharray:359 361;stroke-dashoffset:360;}.start-svg .kJPUuMpX_95{animation:kJPUuMpX_draw 142ms ease-in 4734ms forwards;}.kJPUuMpX_96{stroke-dasharray:453 455;stroke-dashoffset:454;}.start-svg .kJPUuMpX_96{animation:kJPUuMpX_draw 179ms ease-in 4877ms forwards;}.kJPUuMpX_97{stroke-dasharray:350 352;stroke-dashoffset:351;}.start-svg .kJPUuMpX_97{animation:kJPUuMpX_draw 138ms ease-in 5057ms forwards;}.kJPUuMpX_98{stroke-dasharray:41 43;stroke-dashoffset:42;}.start-svg .kJPUuMpX_98{animation:kJPUuMpX_draw 16ms ease-in 5195ms forwards;}.kJPUuMpX_99{stroke-dasharray:41 43;stroke-dashoffset:42;}.start-svg .kJPUuMpX_99{animation:kJPUuMpX_draw 16ms ease-in 5212ms forwards;}.kJPUuMpX_100{stroke-dasharray:41 43;stroke-dashoffset:42;}.start-svg .kJPUuMpX_100{animation:kJPUuMpX_draw 16ms ease-in 5229ms forwards;}.kJPUuMpX_101{stroke-dasharray:45 47;stroke-dashoffset:46;}.start-svg .kJPUuMpX_101{animation:kJPUuMpX_draw 18ms ease-in 5245ms forwards;}.kJPUuMpX_102{stroke-dasharray:45 47;stroke-dashoffset:46;}.start-svg .kJPUuMpX_102{animation:kJPUuMpX_draw 18ms ease-in 5264ms forwards;}.kJPUuMpX_103{stroke-dasharray:45 47;stroke-dashoffset:46;}.start-svg .kJPUuMpX_103{animation:kJPUuMpX_draw 18ms ease-in 5282ms forwards;}.kJPUuMpX_104{stroke-dasharray:45 47;stroke-dashoffset:46;}.start-svg .kJPUuMpX_104{animation:kJPUuMpX_draw 18ms ease-in 5300ms forwards;}.kJPUuMpX_105{stroke-dasharray:45 47;stroke-dashoffset:46;}.start-svg .kJPUuMpX_105{animation:kJPUuMpX_draw 18ms ease-in 5318ms forwards;}.kJPUuMpX_106{stroke-dasharray:45 47;stroke-dashoffset:46;}.start-svg .kJPUuMpX_106{animation:kJPUuMpX_draw 18ms ease-in 5336ms forwards;}.kJPUuMpX_107{stroke-dasharray:45 47;stroke-dashoffset:46;}.start-svg .kJPUuMpX_107{animation:kJPUuMpX_draw 18ms ease-in 5355ms forwards;}.kJPUuMpX_108{stroke-dasharray:45 47;stroke-dashoffset:46;}.start-svg .kJPUuMpX_108{animation:kJPUuMpX_draw 18ms ease-in 5373ms forwards;}.kJPUuMpX_109{stroke-dasharray:45 47;stroke-dashoffset:46;}.start-svg .kJPUuMpX_109{animation:kJPUuMpX_draw 18ms ease-in 5391ms forwards;}.kJPUuMpX_110{stroke-dasharray:45 47;stroke-dashoffset:46;}.start-svg .kJPUuMpX_110{animation:kJPUuMpX_draw 18ms ease-in 5409ms forwards;}.kJPUuMpX_111{stroke-dasharray:45 47;stroke-dashoffset:46;}.start-svg .kJPUuMpX_111{animation:kJPUuMpX_draw 18ms ease-in 5427ms forwards;}.kJPUuMpX_112{stroke-dasharray:45 47;stroke-dashoffset:46;}.start-svg .kJPUuMpX_112{animation:kJPUuMpX_draw 18ms ease-in 5446ms forwards;}.kJPUuMpX_113{stroke-dasharray:45 47;stroke-dashoffset:46;}.start-svg .kJPUuMpX_113{animation:kJPUuMpX_draw 18ms ease-in 5464ms forwards;}.kJPUuMpX_114{stroke-dasharray:45 47;stroke-dashoffset:46;}.start-svg .kJPUuMpX_114{animation:kJPUuMpX_draw 18ms ease-in 5482ms forwards;}.kJPUuMpX_115{stroke-dasharray:45 47;stroke-dashoffset:46;}.start-svg .kJPUuMpX_115{animation:kJPUuMpX_draw 18ms ease-in 5500ms forwards;}.kJPUuMpX_116{stroke-dasharray:45 47;stroke-dashoffset:46;}.start-svg .kJPUuMpX_116{animation:kJPUuMpX_draw 18ms ease-in 5518ms forwards;}.kJPUuMpX_117{stroke-dasharray:45 47;stroke-dashoffset:46;}.start-svg .kJPUuMpX_117{animation:kJPUuMpX_draw 18ms ease-in 5537ms forwards;}.kJPUuMpX_118{stroke-dasharray:46 48;stroke-dashoffset:47;}.start-svg .kJPUuMpX_118{animation:kJPUuMpX_draw 18ms ease-in 5555ms forwards;}.kJPUuMpX_119{stroke-dasharray:46 48;stroke-dashoffset:47;}.start-svg .kJPUuMpX_119{animation:kJPUuMpX_draw 18ms ease-in 5573ms forwards;}.kJPUuMpX_120{stroke-dasharray:46 48;stroke-dashoffset:47;}.start-svg .kJPUuMpX_120{animation:kJPUuMpX_draw 18ms ease-in 5592ms forwards;}.kJPUuMpX_121{stroke-dasharray:46 48;stroke-dashoffset:47;}.start-svg .kJPUuMpX_121{animation:kJPUuMpX_draw 18ms ease-in 5611ms forwards;}.kJPUuMpX_122{stroke-dasharray:46 48;stroke-dashoffset:47;}.start-svg .kJPUuMpX_122{animation:kJPUuMpX_draw 18ms ease-in 5629ms forwards;}.kJPUuMpX_123{stroke-dasharray:46 48;stroke-dashoffset:47;}.start-svg .kJPUuMpX_123{animation:kJPUuMpX_draw 18ms ease-in 5648ms forwards;}.kJPUuMpX_124{stroke-dasharray:46 48;stroke-dashoffset:47;}.start-svg .kJPUuMpX_124{animation:kJPUuMpX_draw 18ms ease-in 5666ms forwards;}.kJPUuMpX_125{stroke-dasharray:46 48;stroke-dashoffset:47;}.start-svg .kJPUuMpX_125{animation:kJPUuMpX_draw 18ms ease-in 5685ms forwards;}.kJPUuMpX_126{stroke-dasharray:46 48;stroke-dashoffset:47;}.start-svg .kJPUuMpX_126{animation:kJPUuMpX_draw 18ms ease-in 5704ms forwards;}.kJPUuMpX_127{stroke-dasharray:46 48;stroke-dashoffset:47;}.start-svg .kJPUuMpX_127{animation:kJPUuMpX_draw 18ms ease-in 5722ms forwards;}.kJPUuMpX_128{stroke-dasharray:35 37;stroke-dashoffset:36;}.start-svg .kJPUuMpX_128{animation:kJPUuMpX_draw 14ms ease-in 5741ms forwards;}.kJPUuMpX_129{stroke-dasharray:34 36;stroke-dashoffset:35;}.start-svg .kJPUuMpX_129{animation:kJPUuMpX_draw 13ms ease-in 5755ms forwards;}.kJPUuMpX_130{stroke-dasharray:37 39;stroke-dashoffset:38;}.start-svg .kJPUuMpX_130{animation:kJPUuMpX_draw 15ms ease-in 5769ms forwards;}.kJPUuMpX_131{stroke-dasharray:41 43;stroke-dashoffset:42;}.start-svg .kJPUuMpX_131{animation:kJPUuMpX_draw 16ms ease-in 5784ms forwards;}.kJPUuMpX_132{stroke-dasharray:44 46;stroke-dashoffset:45;}.start-svg .kJPUuMpX_132{animation:kJPUuMpX_draw 17ms ease-in 5801ms forwards;}.kJPUuMpX_133{stroke-dasharray:44 46;stroke-dashoffset:45;}.start-svg .kJPUuMpX_133{animation:kJPUuMpX_draw 17ms ease-in 5818ms forwards;}.kJPUuMpX_134{stroke-dasharray:42 44;stroke-dashoffset:43;}.start-svg .kJPUuMpX_134{animation:kJPUuMpX_draw 17ms ease-in 5836ms forwards;}.kJPUuMpX_135{stroke-dasharray:37 39;stroke-dashoffset:38;}.start-svg .kJPUuMpX_135{animation:kJPUuMpX_draw 15ms ease-in 5853ms forwards;}.kJPUuMpX_136{stroke-dasharray:31 33;stroke-dashoffset:32;}.start-svg .kJPUuMpX_136{animation:kJPUuMpX_draw 12ms ease-in 5868ms forwards;}.kJPUuMpX_137{stroke-dasharray:25 27;stroke-dashoffset:26;}.start-svg .kJPUuMpX_137{animation:kJPUuMpX_draw 10ms ease-in 5881ms forwards;}.kJPUuMpX_138{stroke-dasharray:17 19;stroke-dashoffset:18;}.start-svg .kJPUuMpX_138{animation:kJPUuMpX_draw 7ms ease-in 5891ms forwards;}.kJPUuMpX_139{stroke-dasharray:146 148;stroke-dashoffset:147;}.start-svg .kJPUuMpX_139{animation:kJPUuMpX_draw 58ms ease-in 5898ms forwards;}.kJPUuMpX_140{stroke-dasharray:425 427;stroke-dashoffset:426;}.start-svg .kJPUuMpX_140{animation:kJPUuMpX_draw 168ms ease-in 5956ms forwards;}.kJPUuMpX_141{stroke-dasharray:427 429;stroke-dashoffset:428;}.start-svg .kJPUuMpX_141{animation:kJPUuMpX_draw 169ms ease-in 6125ms forwards;}.kJPUuMpX_142{stroke-dasharray:422 424;stroke-dashoffset:423;}.start-svg .kJPUuMpX_142{animation:kJPUuMpX_draw 167ms ease-in 6294ms forwards;}.kJPUuMpX_143{stroke-dasharray:432 434;stroke-dashoffset:433;}.start-svg .kJPUuMpX_143{animation:kJPUuMpX_draw 171ms ease-in 6462ms forwards;}.kJPUuMpX_144{stroke-dasharray:169 171;stroke-dashoffset:170;}.start-svg .kJPUuMpX_144{animation:kJPUuMpX_draw 67ms ease-in 6633ms forwards;}.kJPUuMpX_145{stroke-dasharray:169 171;stroke-dashoffset:170;}.start-svg .kJPUuMpX_145{animation:kJPUuMpX_draw 67ms ease-in 6700ms forwards;}.kJPUuMpX_146{stroke-dasharray:91 93;stroke-dashoffset:92;}.start-svg .kJPUuMpX_146{animation:kJPUuMpX_draw 36ms ease-in 6768ms forwards;}.kJPUuMpX_147{stroke-dasharray:114 116;stroke-dashoffset:115;}.start-svg .kJPUuMpX_147{animation:kJPUuMpX_draw 45ms ease-in 6804ms forwards;}.kJPUuMpX_148{stroke-dasharray:146 148;stroke-dashoffset:147;}.start-svg .kJPUuMpX_148{animation:kJPUuMpX_draw 58ms ease-in 6850ms forwards;}.kJPUuMpX_149{stroke-dasharray:152 154;stroke-dashoffset:153;}.start-svg .kJPUuMpX_149{animation:kJPUuMpX_draw 60ms ease-in 6908ms forwards;}.kJPUuMpX_150{stroke-dasharray:78 80;stroke-dashoffset:79;}.start-svg .kJPUuMpX_150{animation:kJPUuMpX_draw 31ms ease-in 6968ms forwards;}@keyframes kJPUuMpX_draw{100%{stroke-dashoffset:0;}}@keyframes kJPUuMpX_fade{0%{stroke-opacity:1;}96.42857142857143%{stroke-opacity:1;}100%{stroke-opacity:0;}}</style></svg>